<?xml version="1.0" standalone="no"?>
<!DOCTYPE svg PUBLIC "-//W3C//DTD SVG 20010904//EN"
 "http://www.w3.org/TR/2001/REC-SVG-20010904/DTD/svg10.dtd">
<svg version="1.0" xmlns="http://www.w3.org/2000/svg"
 width="200.000000pt" height="200.000000pt" viewBox="0 0 200.000000 200.000000"
 preserveAspectRatio="xMidYMid meet">
<rect width="100%" height="100%" fill="#FFFFFF"/>
<g transform="translate(0.000000,200.000000) scale(0.100000,-0.100000)"
fill="#0172ab" stroke="none">
<path d="M419 1296 c-31 -12 -70 -33 -88 -45 -74 -53 -129 -186 -116 -280 9
-69 59 -165 105 -201 73 -58 125 -75 230 -75 82 0 103 4 151 26 47 22 57 32
63 59 10 54 6 67 -11 35 -41 -78 -92 -108 -183 -109 -86 -1 -148 23 -200 80
-65 70 -84 123 -84 229 -1 108 24 175 86 231 54 49 95 64 173 64 100 0 170
-37 201 -105 14 -30 14 -30 11 20 l-2 50 -65 22 c-90 31 -196 31 -271 -1z"/>
<path d="M1477 1305 c-4 -11 -11 -27 -16 -35 -5 -8 -53 -114 -106 -235 -54
-121 -100 -222 -102 -225 -3 -3 -23 15 -44 40 -42 48 -124 169 -118 173 2 1
26 13 52 26 54 27 77 62 77 117 0 54 -32 98 -89 123 -44 18 -67 21 -193 20
-79 -1 -133 -4 -121 -6 45 -9 48 -23 51 -267 4 -279 -1 -307 -48 -322 -30 -10
-20 -11 72 -11 104 0 106 1 75 16 l-32 16 -3 138 -3 137 31 0 c47 0 64 -13
131 -103 135 -178 172 -207 258 -206 53 1 54 1 22 11 -18 5 -47 19 -63 31 -36
27 -34 51 10 150 l31 67 114 0 114 0 42 -104 c24 -58 40 -110 36 -116 -4 -7
-21 -18 -38 -25 -27 -11 -19 -12 75 -12 l105 1 -30 21 c-22 15 -47 57 -95 160
-52 114 -140 317 -181 420 -8 19 -8 19 -14 0z m-378 -32 c40 -30 63 -81 58
-131 -8 -77 -72 -122 -172 -122 l-55 0 0 133 c0 74 3 137 8 141 14 15 133 -1
161 -21z m416 -174 l44 -104 -49 -3 c-28 -2 -72 -2 -99 0 l-49 3 46 113 c25
62 49 109 54 104 5 -5 29 -55 53 -113z"/>
</g>
</svg>
