<?xml version="1.0" standalone="no"?>
<!DOCTYPE svg PUBLIC "-//W3C//DTD SVG 20010904//EN"
 "http://www.w3.org/TR/2001/REC-SVG-20010904/DTD/svg10.dtd">
<svg version="1.0" xmlns="http://www.w3.org/2000/svg"
 width="157.000000pt" height="157.000000pt" viewBox="0 0 157.000000 157.000000"
 preserveAspectRatio="xMidYMid meet" >

<g transform="translate(0.000000,157.000000) scale(0.100000,-0.100000)"
fill="#000000" stroke="none">
<path d="M0 785 l0 -785 785 0 785 0 0 785 0 785 -785 0 -785 0 0 -785z m820
438 c-87 -94 -93 -98 -141 -103 -27 -3 -49 -4 -49 -3 0 1 32 47 71 103 l70
100 71 0 70 0 -92 -97z m290 89 c0 -4 -42 -49 -92 -99 -84 -82 -97 -92 -136
-95 -23 -2 -41 0 -39 5 1 4 32 50 67 102 l65 94 68 1 c37 0 67 -3 67 -8z
m-162 -346 c232 -119 279 -435 92 -610 -61 -57 -111 -82 -192 -96 -123 -22
-251 21 -331 110 -179 200 -113 504 132 607 48 20 69 23 151 20 80 -3 103 -8
148 -31z"/>
<path d="M675 886 c-97 -45 -165 -153 -165 -261 0 -153 128 -285 275 -285 95
0 201 66 248 155 31 58 31 202 0 260 -72 134 -229 191 -358 131z"/>
</g>
</svg>
