<?xml version="1.0" standalone="no"?>
<!DOCTYPE svg PUBLIC "-//W3C//DTD SVG 20010904//EN"
 "http://www.w3.org/TR/2001/REC-SVG-20010904/DTD/svg10.dtd">
<svg version="1.0" xmlns="http://www.w3.org/2000/svg"
 width="243.000000pt" height="243.000000pt" viewBox="0 0 243.000000 243.000000"
 preserveAspectRatio="xMidYMid meet">
 
<rect width="100%" height="100%" fill="#e31b34"/>
<g transform="translate(0.000000,243.000000) scale(0.100000,-0.100000)"
fill="#FFFFFF" stroke="none">
<path d="M830 340 l0 -140 25 0 25 0 0 140 0 140 -25 0 -25 0 0 -140z"/>
<path d="M1160 455 c0 -23 2 -24 20 -15 11 6 20 17 20 25 0 8 -9 15 -20 15
-15 0 -20 -7 -20 -25z"/>
<path d="M1800 360 l0 -120 -85 0 -85 0 0 59 c0 67 4 71 80 71 33 0 50 5 54
15 4 13 -8 15 -74 15 -70 0 -81 -2 -94 -22 -19 -27 -22 -148 -4 -166 8 -8 52
-12 130 -12 l118 0 0 140 c0 133 -1 140 -20 140 -19 0 -20 -7 -20 -120z"/>
<path d="M1172 398 c-8 -8 -12 -46 -12 -105 0 -86 1 -93 20 -93 19 0 20 7 20
105 0 103 -4 117 -28 93z"/>
<path d="M60 300 c0 -93 1 -100 20 -100 17 0 19 8 22 83 l3 82 63 3 62 3 0
-86 c0 -84 0 -85 25 -85 25 0 25 1 25 85 l0 85 49 0 c69 0 81 -15 81 -101 0
-62 2 -69 20 -69 18 0 20 7 20 83 0 120 5 117 -213 117 l-177 0 0 -100z"/>
<path d="M546 385 c-4 -13 8 -15 74 -15 96 0 110 -10 110 -81 l0 -49 -96 0
-95 0 3 28 c3 26 6 27 61 30 80 4 72 22 -11 22 -75 0 -92 -9 -92 -53 0 -63 8
-67 145 -67 l125 0 0 83 c0 111 -6 117 -127 117 -72 0 -92 -3 -97 -15z"/>
<path d="M917 393 c-17 -16 -3 -23 46 -23 29 0 58 -5 65 -12 7 -7 12 -42 12
-85 0 -71 1 -73 25 -73 25 0 25 1 25 78 0 109 -11 122 -99 122 -37 0 -71 -3
-74 -7z"/>
<path d="M1270 300 l0 -100 25 0 c25 0 25 1 25 85 l0 85 61 0 c92 0 99 -7 99
-95 0 -68 2 -75 20 -75 18 0 20 7 20 83 0 114 -4 117 -143 117 l-107 0 0 -100z"/>
<path d="M1944 386 c-16 -12 -20 -29 -23 -100 l-3 -86 26 0 c26 0 26 1 26 73
0 43 5 78 12 85 7 7 35 12 64 12 37 0 54 4 58 15 4 12 -7 15 -67 15 -47 0 -80
-5 -93 -14z"/>
<path d="M2147 393 c-18 -17 -1 -23 71 -23 47 0 83 -5 90 -12 7 -7 12 -36 12
-65 l0 -53 -91 0 -90 0 3 28 c3 25 7 27 53 30 78 5 80 22 3 22 -37 0 -73 -3
-82 -6 -19 -7 -22 -84 -4 -102 8 -8 53 -12 135 -12 l123 0 0 78 c0 115 -7 122
-124 122 -51 0 -96 -3 -99 -7z"/>
</g>
</svg>
